<svg width="55" height="55" viewBox="0 0 55 55" fill="none" xmlns="http://www.w3.org/2000/svg">
<path d="M27.4999 54.1345C42.2098 54.1345 54.1345 42.2098 54.1345 27.4999C54.1345 12.79 42.2098 0.865234 27.4999 0.865234C12.79 0.865234 0.865234 12.79 0.865234 27.4999C0.865234 42.2098 12.79 54.1345 27.4999 54.1345Z" fill="#EDEBFD"/>
<path d="M25.0371 0.979708C38.9168 1.89592 49.8915 13.4423 49.8915 27.5538C49.8915 41.4335 39.2744 52.8315 25.7189 54.0742C41.1587 55.0935 54.1337 42.863 54.1337 27.5001C54.1337 11.9185 40.7691 -0.462966 25.0371 0.979708V0.979708Z" fill="#D2D2FC"/>
<path d="M27.5541 46.3485C28.9776 46.3485 30.1317 45.1944 30.1317 43.7709C30.1317 42.3474 28.9776 41.1934 27.5541 41.1934C26.1306 41.1934 24.9766 42.3474 24.9766 43.7709C24.9766 45.1944 26.1306 46.3485 27.5541 46.3485Z" fill="#F1CC76"/>
<path d="M26.6953 41.3403C28.9782 42.1475 28.9838 45.3918 26.6953 46.2009C28.3656 46.7914 30.132 45.5539 30.132 43.7706C30.132 41.985 28.3637 40.7505 26.6953 41.3403V41.3403Z" fill="#EBB15D"/>
<path d="M46.9411 8.0589C36.1965 -2.6856 18.8049 -2.687 8.0589 8.0589C-2.6855 18.8034 -2.68711 36.195 8.0589 46.9411C18.8035 57.6856 36.1951 57.687 46.9411 46.9411C57.6855 36.1966 57.6871 18.805 46.9411 8.0589V8.0589ZM27.4999 53.2754C13.2874 53.2754 1.72447 41.7125 1.72447 27.4999C1.72447 13.2874 13.2874 1.72447 27.4999 1.72447C41.7125 1.72447 53.2754 13.2874 53.2754 27.4999C53.2754 41.7125 41.7127 53.2754 27.4999 53.2754Z" fill="black"/>
<path d="M27.5539 40.334C25.6589 40.334 24.1172 41.8757 24.1172 43.7707C24.1172 45.6658 25.6589 47.2074 27.5539 47.2074C29.449 47.2074 30.9907 45.6658 30.9907 43.7707C30.9907 41.8757 29.4491 40.334 27.5539 40.334ZM27.5539 45.4891C26.6065 45.4891 25.8356 44.7182 25.8356 43.7707C25.8356 42.8233 26.6065 42.0524 27.5539 42.0524C28.5014 42.0524 29.2723 42.8233 29.2723 43.7707C29.2723 44.7182 28.5015 45.4891 27.5539 45.4891Z" fill="black"/>
<rect x="25.75" y="10.75" width="3.5" height="24.5" fill="#F1CC76" stroke="black" stroke-width="1.5"/>
</svg>
