<svg id="Capa_1" enable-background="new 0 0 512 512" height="512" viewBox="0 0 512 512" width="512" xmlns="http://www.w3.org/2000/svg"><g><g><path clip-rule="evenodd" d="m256.011 478.663c-3.65-.116-7.272-3.245-14.514-9.01l-168.496-166.994-22.945-22.772c-56.638-58.668-56.638-154.651 0-213.319 51.424-53.279 134.541-39.923 189.499 9.59 10.14 9.126 13.703 13.675 16.456 13.646 2.723.029 6.287-4.52 16.456-13.646 54.929-49.513 138.047-62.869 189.499-9.59 56.609 58.668 56.609 154.651 0 213.319l-22.974 22.772-168.466 166.993c-7.272 5.766-10.893 8.895-14.515 9.011z" fill="#ff8086" fill-rule="evenodd"/></g><g><path clip-rule="evenodd" d="m233.53 179.297c11.415-58.32-30.159-92.159-72.485-92.999-43.572-.869-87.985 32.999-76.223 92.999-1.159 49.571-21.989 31.174-21.989 82.541 46.527 45.225 195.467 31.84 189.557-27.147-5.881-19.266-17.991-17.904-18.86-55.394z" fill="#ffe07d" fill-rule="evenodd"/></g><g><path clip-rule="evenodd" d="m354.165 261.065c17.527 0 37.293-11.019 41.631-32.197-.203-.029-.406-.087-.608-.145-9.213-2.521-11.646-14.399-13.529-18.252-10.444-10.05-17.442-10.05-26.189-9.459-4.541.306-14.495-.142-28.798 9.459-1.883 3.853-4.346 15.732-13.558 18.252-.203.058-.406.116-.608.145 8.516 32.197 41.659 32.197 41.659 32.197z" fill="#f1d0a5" fill-rule="evenodd"/></g><g><path clip-rule="evenodd" d="m438.992 302.659 13.124-13.037v-9.503c0-38.127-30.304-44.182-56.32-51.251-8.72 13.791-24.104 22.946-41.631 22.946s-32.911-9.155-41.66-22.946c-11.501 3.129-23.872 6.055-34.07 11.676 14.08 7.909 24.654 23.612 24.654 47.079-.029 0-.058 0-.087 0v.029l.174 9.01c0 18.542-12.718 36.128-28.652 44.79 1.507 3.1 6.953 16.108 14.341 18.107 20.946 5.707 45.6 10.401 45.6 41.169v5.534z" fill="#c3ddff" fill-rule="evenodd"/></g><g><path clip-rule="evenodd" d="m381.658 210.471c15.992-11.009 28.044-29.696 28.044-49.252l-.203-10.082c-26.306-21.603-36.17-27.111-55.349-27.111-6.171 0-33.128-.261-55.349 27.082-.073.09 0-.232 0-.348l-.174 10.459c0 19.556 12.052 38.243 28.044 49.252 3.882 2.665 8.025 4.896 12.255 6.577 11.009 4.317 19.44 4.317 30.449 0 4.258-1.681 8.372-3.912 12.283-6.577z" fill="#ffe4c1" fill-rule="evenodd"/></g><g><path clip-rule="evenodd" d="m237.47 341.452c-15.905-8.663-28.652-26.248-28.652-44.79l.174-9.01.348-.232-.521.203c0-23.467 10.603-39.199 24.712-47.108-10.198-5.592-22.539-8.518-34.041-11.647-8.749 13.791-24.133 22.946-41.631 22.946-17.527 0-32.911-9.155-41.66-22.946-21.149 5.736-45.108 10.806-53.365 32.97-1.912 5.099-2.955 11.125-2.955 18.281v9.503l13.124 13.037 104.527 103.603v-5.534c0-30.768 24.654-35.461 45.6-41.169 7.387-1.998 12.833-15.007 14.34-18.107z" fill="#ffcccf" fill-rule="evenodd"/></g><g><path clip-rule="evenodd" d="m233.53 179.297c11.415-58.32-30.159-92.159-72.485-92.999-15.181-.319-30.449 3.592-43.399 11.357 7.793-2.202 15.934-3.245 24.017-3.071 42.356.84 83.929 34.708 72.514 93.028.811 35.143 11.53 36.099 17.672 52.033.579.261 1.13.579 1.68.869 5.852-3.303 12.313-5.244 18.86-5.823-5.88-19.266-17.99-17.904-18.859-55.394z" fill="#ffd064" fill-rule="evenodd"/></g><g><path clip-rule="evenodd" d="m409.5 151.137c.029 0 .058 0 .087-.029 0-59.131-61.303-74.226-86.855-42.675-23.293 6.084-23.524 27.378-23.93 42.675 26.306.261 24.336-13.124 29.492-9.735 19.063 12.574 56.522 19.498 81.206 9.764z" fill="#d19a6e" fill-rule="evenodd"/></g><g><path clip-rule="evenodd" d="m409.586 151.108c0-39.315-27.117-59.16-52.785-58.784 17.962 7.562 32.621 25.959 32.621 54.844l-.087.058.145 8.228c7.127-.55 13.964-1.912 20.019-4.317z" fill="#c38c66" fill-rule="evenodd"/></g><g><path clip-rule="evenodd" d="m381.658 210.471c15.992-11.009 28.044-29.696 28.044-49.252l-.203-10.082c-6.055 2.405-12.892 3.766-20.019 4.317l.029 1.854c0 19.527-12.052 38.214-28.044 49.223-3.911 2.694-8.025 4.896-12.255 6.577-4.404 1.709-8.373 2.752-12.255 3.1.637.29 1.304.579 1.97.84 11.009 4.317 19.44 4.317 30.449 0 4.259-1.681 8.373-3.912 12.284-6.577z" fill="#f1d0a5" fill-rule="evenodd"/></g><g><path clip-rule="evenodd" d="m332.437 228.781c6.692 2.607 20.946 6.721 32.679 2.839 1.188-.406 2.549-2.376 3.795 1.651 1.014 3.303 3.679 7.504 9.879 11.936 2.781-1.593 5.389-3.477 7.764-5.563 3.592-3.129 6.692-6.75 9.242-10.777-.203-.029-.406-.087-.608-.145-9.213-2.521-11.646-14.399-13.529-18.252-3.911 2.665-8.025 4.896-12.284 6.577-11.009 4.317-19.44 4.317-30.449 0-4.23-1.68-8.373-3.911-12.255-6.577-1.188 2.376-2.549 7.88-5.649 12.284 3.65 2.435 7.475 4.463 11.415 6.027z" fill="#e5c093" fill-rule="evenodd"/></g><g><path clip-rule="evenodd" d="m158.089 258.993c17.498 0 32.65-16.335 41.4-30.125-.203-.029-.406-.087-.608-.145-9.213-2.521-11.907-14.66-13.819-18.513-10.036-3.201-12.285-6.949-22.687-8.037-5.645-.59-20.838 1.33-31.546 7.805-1.883 3.853-4.809 16.224-14.022 18.745-.203.058-.406.116-.608.145 12.841 34.124 41.89 30.125 41.89 30.125z" fill="#f1d0a5" fill-rule="evenodd"/></g><g><path clip-rule="evenodd" d="m452.116 280.119c0-38.127-30.304-44.182-56.32-51.251-2.549 4.027-5.649 7.649-9.242 10.777-2.376 2.086-4.983 3.969-7.764 5.563 41.631 8.257 45.311 24.307 52.466 65.1l20.859-20.686v-9.503z" fill="#9dc6fb" fill-rule="evenodd"/></g><g><path clip-rule="evenodd" d="m185.061 210.21c10.835-9.619 18.512-23.786 18.512-38.561l-.174-18.31c-16.948-.116-19.584 0-31.578-10.864-6.229 6.982-18.397 10.864-32.39 10.864h-26.827v18.31c0 14.66 7.561 28.74 18.223 38.33 4.49 4.056 9.531 7.272 14.775 9.445 9.01 3.708 15.934 3.708 24.944 0 5.158-2.116 10.112-5.274 14.515-9.214z" fill="#ffe4c1" fill-rule="evenodd"/></g><g><path clip-rule="evenodd" d="m185.061 210.21c10.835-9.619 18.512-23.786 18.512-38.561l-.174-18.31c-7.446-.058-12.11-.058-16.05-.956l.087 10.98c0 14.747-7.677 28.943-18.484 38.561-4.433 3.94-9.358 7.098-14.514 9.213-7.388 3.042-13.385 3.592-20.251 1.651 3.592 2.752 7.446 5.012 11.415 6.635 9.01 3.708 15.934 3.708 24.944 0 5.158-2.115 10.112-5.273 14.515-9.213z" fill="#f1d0a5" fill-rule="evenodd"/></g><g><path clip-rule="evenodd" d="m257.5 384.204c14.022 0 30.259-9.234 31.364-24.645-7.388-1.999-12.834-15.007-14.341-18.107-3.278-3.983-8.027-7.341-18.523-7.232-2.028.021-13.113 2.499-18.531 7.232-1.506 3.1-6.953 16.108-14.341 18.107 3.881 24.645 34.372 24.645 34.372 24.645z" fill="#f1d0a5" fill-rule="evenodd"/></g><g><path clip-rule="evenodd" d="m165.911 234.488c10.111-4.143 11.617-6.953 15.702 0 2.231 3.795 3.303 6.113 5.504 7.678 4.896-3.621 9.097-8.112 12.371-13.298-.203-.029-.406-.087-.608-.145-9.213-2.521-11.907-14.66-13.819-18.513-4.404 3.94-9.358 7.098-14.514 9.213-9.01 3.708-15.934 3.708-24.944 0-3.969-1.622-7.822-3.882-11.415-6.635-1.159-.898-2.26-1.825-3.361-2.81-1.101 2.26-2.549 7.504-5.476 11.907-1.708 2.608 20.484 20.86 40.56 12.603z" fill="#e5c093" fill-rule="evenodd"/></g><g><path clip-rule="evenodd" d="m274.524 341.452c15.934-8.663 28.652-26.248 28.652-44.79l-.174-9.01v-.029c-39.504-49.623-79.873-23.297-93.663-.203l-.348.232-.174 9.01c0 18.542 12.747 36.128 28.652 44.79 1.825 1.014 3.708 1.883 5.591 2.636 9.358 3.679 16.513 3.679 25.871 0 1.913-.753 3.768-1.622 5.593-2.636z" fill="#ffe4c1" fill-rule="evenodd"/></g><g><path clip-rule="evenodd" d="m303.089 287.623c0-23.467-10.574-39.17-24.654-47.079-6.924-3.911-14.717-5.939-22.481-6.055-1.188.029-2.376.087-3.563.203-6.547.579-13.008 2.521-18.86 5.823-14.109 7.909-24.712 23.641-24.712 47.108.174-.058.348-.145.521-.203 12.805-5.128 41.313-1.738 52.756-9.59 4.983-3.448 6.663-4.404 11.067-1.304 4.085 2.868 13.472 11.589 29.84 11.096.028.001.057.001.086.001z" fill="#d19a6e" fill-rule="evenodd"/></g><g><path clip-rule="evenodd" d="m303.089 287.623c0-23.467-10.574-39.17-24.654-47.079-6.924-3.911-14.717-5.939-22.481-6.055-1.188.029-2.376.087-3.563.203-.956.087-1.912.203-2.868.348 1.014.319 1.999.666 2.955 1.072 1.825.753 3.621 1.593 5.36 2.578 13.443 7.591 23.727 22.279 24.596 44.095 5.012 2.723 11.791 5.099 20.569 4.838z" fill="#c38c66" fill-rule="evenodd"/></g><g><path clip-rule="evenodd" d="m274.524 341.452c15.934-8.663 28.652-26.248 28.652-44.79l-.174-9.01v-.029c-8.778.261-15.557-2.115-20.569-4.838.029.985.058 1.97.058 2.984h-.087v.029l.174 9.01c0 18.542-12.747 36.157-28.652 44.79-1.825 1.014-3.708 1.883-5.591 2.636-1.912.724-3.708 1.333-5.447 1.767l.174.087c9.358 3.679 16.513 3.679 25.871 0 1.911-.753 3.766-1.622 5.591-2.636z" fill="#f1d0a5" fill-rule="evenodd"/></g><g><path clip-rule="evenodd" d="m216.929 256.449c4.317-6.953 10.082-12.284 16.6-15.934-.55-.29-1.101-.608-1.68-.869-9.85-5.041-21.468-7.822-32.361-10.777-3.274 5.186-7.475 9.677-12.371 13.298 8.779 2.375 20.31 8.864 29.812 14.282z" fill="#e7b1b9" fill-rule="evenodd"/></g><g><path clip-rule="evenodd" d="m334.465 400.729c0-30.768-24.654-35.461-45.6-41.169-7.011 11.038-18.831 18.513-32.853 18.513-14.051 0-25.871-7.475-32.882-18.513-20.946 5.707-45.6 10.401-45.6 41.169v5.534l63.968 63.39c7.243 5.765 10.864 8.894 14.514 9.01 3.621-.116 7.243-3.245 14.514-9.01l63.939-63.39z" fill="#ccf49e" fill-rule="evenodd"/></g><g><path clip-rule="evenodd" d="m288.864 359.56c-7.388-1.999-12.834-15.007-14.341-18.107-1.825 1.014-3.679 1.883-5.591 2.636-9.358 3.679-16.513 3.679-25.871 0-.058-.029-.116-.058-.174-.087-1.854-.724-3.65-1.564-5.418-2.549-.927 1.883-3.245 7.359-6.605 11.849 7.706 6.461 21.033 10.459 31.694 6.258 4.143-1.333 5.244-.55 6.403 1.535 2.376 4.288 4.838 8.141 8.228 10.517 4.664-3.129 8.633-7.243 11.675-12.052z" fill="#e5c093" fill-rule="evenodd"/></g><g><path clip-rule="evenodd" d="m334.465 400.729c0-30.768-24.654-35.461-45.6-41.169-3.042 4.809-7.011 8.923-11.675 12.052 20.946 5.736 40.849 15.123 40.849 45.891v5.041l16.427-16.282v-5.533z" fill="#b3e59e" fill-rule="evenodd"/></g><g><path clip-rule="evenodd" d="m461.966 279.887c56.609-58.668 56.609-154.651 0-213.319-36.359-37.663-88.535-42.038-135.381-23.902 34.418-3.129 68.429 6.779 94.416 33.694 46.527 48.18 54.813 121.595 24.886 178.785 3.911 6.316 6.229 14.428 6.229 24.974v9.503z" fill="#e5646e" fill-rule="evenodd"/></g><path d="m467.359 61.36c-25.564-26.471-60.891-39.257-99.468-36.015-35.743 3.009-71.414 19.076-100.433 45.233-3.218 2.889-5.788 5.327-7.854 7.288-1.272 1.207-2.568 2.436-3.604 3.364-1.051-.942-2.372-2.197-3.667-3.428-2.045-1.944-4.59-4.363-7.759-7.215-29.044-26.167-64.723-42.234-100.465-45.243-38.578-3.243-73.897 9.544-99.447 36.016-59.55 61.684-59.55 162.05 0 223.734.037.039.075.076.113.114l191.444 189.769c2.026 2.011 9.361 9.567 14.908 11.382 6.179 2.021 11.681.085 17.203-4.852 1.719-1.536 6.769-5.828 7.475-6.53l110.611-109.658c2.94-2.915 2.961-7.663.046-10.603-2.915-2.941-7.663-2.963-10.603-.046l-35.027 34.725c-5.346-25.131-28.724-31.384-46.371-36.095-1.217-.325-2.428-.647-3.639-.977-.656-.178-2.829-1.307-6.534-8.077 15.833-11.122 26.386-29.426 26.386-47.583 0-.048-.087-8.659-.087-9.039 0-18.24-5.849-33.747-16.913-44.844-.164-.165-.337-.319-.503-.481 5.232-1.835 10.772-3.353 16.244-4.816 10.734 13.762 27.083 21.83 44.75 21.83 17.677 0 34.017-8.067 44.728-21.828 28.473 7.646 45.726 14.578 45.726 42.635v6.408l-41.44 41.083c-2.94 2.916-2.961 7.663-.046 10.603 2.916 2.94 7.664 2.96 10.603.046l53.509-53.047c.039-.039.078-.078.117-.118 59.518-61.684 59.518-162.051-.003-223.735zm-296.197 328.029-92.879-92.051-10.908-10.826v-6.393c0-28.041 17.254-34.984 45.732-42.637 10.734 13.762 27.083 21.83 44.75 21.83 17.65 0 33.988-8.067 44.72-21.829 5.453 1.458 10.972 2.971 16.19 4.796-.173.169-.352.328-.523.5-11.072 11.1-16.925 26.607-16.925 44.845v9.039c0 18.157 10.553 36.461 26.386 47.583-3.706 6.77-5.88 7.9-6.547 8.081-1.198.327-2.409.65-3.626.974-17.646 4.71-41.021 10.962-46.37 36.088zm-37.173-167.583c2.787 1.762 5.713 3.298 8.76 4.551 5.443 2.241 10.384 3.36 15.326 3.36 4.94 0 9.882-1.12 15.323-3.359 2.938-1.208 5.763-2.678 8.46-4.359 1.516 3.109 3.557 6.42 6.451 9.119-7.828 8.372-18.75 13.198-30.452 13.198-11.717 0-22.648-4.827-30.48-13.199 2.954-2.744 5.051-6.129 6.612-9.311zm-13.887-50.158v-10.812h19.33c13.062 0 24.435-3.032 32.377-8.484 8.333 6.699 13.615 8.052 24.163 8.376l.104 10.919c0 16.632-12.201 34.189-28.382 40.842-7.192 2.96-12.046 2.959-19.24-.001-16.163-6.644-28.352-24.202-28.352-40.84zm171.803 196.494c21.845 5.898 35.061 11.343 35.061 32.587v2.412s-69.482 67.308-70.964 67.927c-1.49-.615-70.976-67.938-70.976-67.938v-2.401c0-21.243 13.215-26.688 35.062-32.587 8.887 10.998 21.953 17.428 35.923 17.428 13.955 0 27.01-6.43 35.894-17.428zm-57.949-6.93c2.732-2.821 5.029-6.33 6.985-9.913 5.322 2.027 10.191 3.052 15.056 3.052 4.864 0 9.734-1.024 15.055-3.051 1.956 3.584 4.254 7.094 6.985 9.915-5.876 6.009-13.605 9.361-22.026 9.361-8.435-.001-16.175-3.353-22.055-9.364zm61.722-64.48c-.035 16.43-12.701 33.78-29.49 40.38-7.621 2.996-12.763 2.996-20.385-.001-16.788-6.599-29.453-23.95-29.489-40.38l.068-3.543c4.57-.921 10.607-1.355 16.495-1.778 12.453-.895 25.33-1.821 33.482-7.414.555-.384 1.513-1.047 2.247-1.502.076.051 1.114.805 1.641 1.203 4.335 3.268 12.618 9.514 25.392 11.081zm-.593-17.228c-7.436-1.496-14.217-5.89-17.614-9.112-8.826-6.209-14.573-2.235-19.606 1.249-4.792 3.274-16.103 4.09-26.083 4.809-5.154.371-10.159.731-14.723 1.405 3.844-24.143 21.924-35.544 38.894-35.867 17.353.329 35.864 12.239 39.132 37.516zm59.08-35.188c-11.717 0-22.648-4.826-30.48-13.198 3.082-2.883 5.173-6.46 6.671-9.728 1.901.964 3.843 1.853 5.832 2.638 6.378 2.501 12.167 3.752 17.959 3.752 5.793 0 11.588-1.253 17.973-3.756 1.992-.784 3.936-1.673 5.839-2.638 1.494 3.27 3.582 6.851 6.666 9.737-7.812 8.369-18.736 13.193-30.46 13.193zm12.472-34.249c-9.218 3.615-15.752 3.616-24.96.006-20.248-7.986-35.521-28.954-35.551-48.794l.049-2.998c12.083-1.184 18.039-5.442 21.372-8.575 14.03 8.034 34.898 13.458 54.828 13.458 6.825 0 13.535-.646 19.828-2.032l.003.157c-.036 19.841-15.32 40.803-35.569 48.778zm-60.005-66.888c.926-13.913 4.112-23.866 17.994-27.492 1.547-.404 2.925-1.293 3.931-2.535 9.851-12.163 27.209-16.533 43.192-10.873 17.558 6.218 28.577 22.284 30.146 43.511-22.27 6.24-53.446-.119-69.483-10.682-1.836-1.207-3.676-1.809-5.512-1.809-2.832 0-5.656 1.435-8.442 4.3-1.845 1.897-4.42 4.547-11.826 5.58zm152.514 128.76c-1.68-14.661-8.061-25.86-19.409-34.049-11.069-7.987-24.756-11.638-37.993-15.169-1.539-.411-3.069-.819-4.577-1.23-3.053-.835-5.04-4.86-6.438-8.398 16.041-12.996 26.472-32.517 26.472-51.875 0-.048 0-.096-.001-.144 0 0-.115-9.698-.115-9.968 0-35.893-20.832-56.061-40.328-62.965-21.144-7.489-44.224-1.966-58.265 13.709-26.064 8.201-26.768 33.173-27.165 48.327-.006.105-.195 10.917-.195 10.917-.001.041-.001.082-.001.123 0 19.356 10.426 38.878 26.465 51.877-1.406 3.54-3.401 7.558-6.455 8.394-1.53.418-3.077.831-4.633 1.247-9.453 2.524-19.188 5.126-28.059 9.377-6.453-3.009-13.519-4.751-20.871-5.064-2.069-4.846-4.475-8.446-6.664-11.719-4.762-7.12-9.263-13.851-9.867-35.416 6.502-34.481-4.737-57.385-15.365-70.559-15.03-18.63-39.137-30.052-64.49-30.556-16.477-.323-32.537 3.776-46.417 11.852-3.579 2.082-4.792 6.672-2.71 10.251 2.082 3.58 6.672 4.792 10.251 2.71 11.339-6.598 25.031-10.082 38.581-9.82 20.976.417 40.832 9.755 53.114 24.98 12.491 15.483 16.697 35.915 12.162 59.084-.104.531-.15 1.072-.138 1.614.616 26.557 6.883 35.928 12.413 44.197 1.21 1.81 2.341 3.516 3.383 5.35-2.866.798-5.65 1.821-8.328 3.069-8.866-4.231-18.587-6.832-28.029-9.355-1.551-.414-3.093-.826-4.614-1.242-3.298-.902-5.45-5.539-6.947-9.342 10.551-11.06 17.159-25.857 17.158-40.573l-.174-18.31c-.039-4.092-3.353-7.398-7.446-7.426l-.618-.004c-15.642-.105-16.253-.11-25.978-8.92-1.481-1.341-3.448-2.042-5.432-1.93-1.996.106-3.866 1.005-5.197 2.496-4.599 5.155-14.866 8.358-26.794 8.358h-26.828c-4.141 0-7.498 3.356-7.498 7.498v18.31c0 14.549 6.491 29.204 16.878 40.226-1.521 3.808-3.818 8.704-7.15 9.615-1.501.409-3.017.813-4.542 1.22-12.971 3.462-26.368 7.05-37.321 14.701 1.77-6.034 4.259-9.766 6.94-13.779 5.524-8.266 11.785-17.636 12.405-44.159.013-.544-.034-1.088-.139-1.622-3.79-19.272-1.436-36.978 6.807-51.202 2.076-3.583.856-8.17-2.727-10.247-3.582-2.074-8.17-.854-10.246 2.728-9.972 17.207-12.978 38.209-8.707 60.789-.608 21.533-5.104 28.263-9.861 35.383-5.858 8.767-11.909 17.842-12.1 45.206-1.199 3.539-2.029 7.336-2.501 11.397-51.377-56.134-50.511-145.102 2.609-200.127 50.764-52.594 130.158-34.127 179.089 9.956 3.02 2.719 5.483 5.06 7.463 6.941 5.842 5.552 9.082 8.63 13.965 8.63h.086c4.851 0 8.069-3.053 13.872-8.559 1.998-1.896 4.486-4.256 7.561-7.015 48.905-44.083 128.291-62.551 179.083-9.953 53.106 55.036 53.962 144.029 2.576 200.165z"/></g></svg>