<?xml version="1.0"?>
<svg xmlns="http://www.w3.org/2000/svg" xmlns:xlink="http://www.w3.org/1999/xlink" xmlns:svgjs="http://svgjs.com/svgjs" version="1.1" width="512" height="512" x="0" y="0" viewBox="0 0 512 512" style="enable-background:new 0 0 512 512" xml:space="preserve" class=""><g><g xmlns="http://www.w3.org/2000/svg"><path d="m145.084 117.263v-64.215c0-25.156-20.393-45.548-45.548-45.548-25.156 0-45.548 20.393-45.548 45.548v63.184c0 .569.462 1.031 1.031 1.031z" fill="#c6c1c8" data-original="#c6c1c8" style="" class=""/><path d="m412.852 504.5h-222.22c25.156 0 45.548-20.393 45.548-45.548v-71.305c0-.69.559-1.25 1.25-1.25h236.744c.69 0 1.25.559 1.25 1.25v54.282c0 34.557-28.014 62.571-62.572 62.571z" fill="#c6c1c8" data-original="#c6c1c8" style="" class=""/><path d="m249.106 105.827h-24.365v-48.73h24.365c13.456 0 24.365 10.909 24.365 24.365 0 13.457-10.908 24.365-24.365 24.365z" fill="#5c90b9" data-original="#5c90b9" style="" class=""/><path d="m77.861 287.725c7.927-29.584 38.336-47.14 67.919-39.213 29.584 7.927 47.14 38.336 39.213 67.92l-19.688 73.476-107.132-28.707z" fill="#e28086" data-original="#e28086" style="" class=""/><path d="m165.306 389.907-19.688 73.476c-7.927 29.584-38.336 47.14-67.919 39.213-29.584-7.927-47.14-38.335-39.213-67.919l19.688-73.476z" fill="#ffd064" data-original="#ffd064" style="" class=""/><path d="m145.781 248.512c-3.891-1.043-7.796-1.644-11.662-1.836 11.067 13.368 15.709 31.715 10.875 49.755l-9.618 35.894c-5.562 20.756-26.896 33.073-47.652 27.512l-27.23-7.296-2.32 8.66 107.133 28.706 19.688-73.476c7.926-29.584-9.63-59.993-39.214-67.919z" fill="#dd636e" data-original="#dd636e" style="" class=""/><path d="m122.986 378.567-17.367 64.816c-6.885 25.693-30.726 42.314-56.258 41.049 7.082 8.555 16.794 15.071 28.338 18.165 29.584 7.927 59.992-9.629 67.919-39.213l19.688-73.476z" fill="#ffc250" data-original="#ffc250" style="" class=""/><path d="m321.756 7.5h-222.221c25.156 0 45.548 20.393 45.548 45.548v195.282c.232.059.465.12.697.182 29.584 7.927 47.14 38.335 39.213 67.919l-39.376 146.952c-.075.281-.153.561-.232.84 2.613 22.672 21.874 40.276 45.246 40.276 25.156 0 45.548-20.393 45.548-45.548v-71.305c0-.69.559-1.25 1.25-1.25h146.897v-316.325c.001-34.557-28.013-62.571-62.57-62.571z" fill="#f1f1f4" data-original="#f1f1f4" style="" class=""/><path d="m327.887 7.797c10.209 11.135 16.44 25.977 16.44 42.274v275.601c0 22.492-18.233 40.726-40.725 40.726h-77.25c-16.663 0-30.171 13.508-30.171 30.171v42.383c0 24.402-19.188 44.321-43.299 45.493 8.188 12.101 22.04 20.055 37.751 20.055 25.156 0 45.548-20.393 45.548-45.548v-71.305c0-.69.559-1.25 1.25-1.25h146.897v-316.326c-.001-32.488-24.762-59.194-56.441-62.274z" fill="#dfdde2" data-original="#dfdde2" style="" class=""/><path d="m351.371 222.326h-28.073c-4.143 0-7.5 3.357-7.5 7.5s3.357 7.5 7.5 7.5h28.073c4.143 0 7.5-3.357 7.5-7.5s-3.357-7.5-7.5-7.5z" fill="#000000" data-original="#000000" style="" class=""/><path d="m185.792 222.326c-4.142 0-7.5 3.357-7.5 7.5s3.358 7.5 7.5 7.5h101.411c4.143 0 7.5-3.357 7.5-7.5s-3.357-7.5-7.5-7.5z" fill="#000000" data-original="#000000" style="" class=""/><path d="m351.371 300.611h-28.073c-4.143 0-7.5 3.357-7.5 7.5s3.357 7.5 7.5 7.5h28.073c4.143 0 7.5-3.357 7.5-7.5s-3.357-7.5-7.5-7.5z" fill="#000000" data-original="#000000" style="" class=""/><path d="m351.371 339.755h-28.073c-4.143 0-7.5 3.357-7.5 7.5s3.357 7.5 7.5 7.5h28.073c4.143 0 7.5-3.357 7.5-7.5s-3.357-7.5-7.5-7.5z" fill="#000000" data-original="#000000" style="" class=""/><path d="m474.174 378.897h-82.347v-205.216c0-4.143-3.357-7.5-7.5-7.5s-7.5 3.357-7.5 7.5v205.217c-38.473 0-129.521 0-191.035 0-4.142 0-7.5 3.357-7.5 7.5s3.358 7.5 7.5 7.5h42.889v24.143h-42.889c-4.142 0-7.5 3.357-7.5 7.5s3.358 7.5 7.5 7.5h42.889v25.911c0 20.98-17.068 38.049-38.048 38.049-18.872 0-34.803-13.773-37.612-32.262 2.82-10.524 25.904-96.676 29.652-110.662.95.435 2.007.678 3.12.678h101.411c4.143 0 7.5-3.357 7.5-7.5s-3.357-7.5-7.5-7.5h-100.695c5.894-22.075 5.866-21.71 6.404-24.144h94.29c4.143 0 7.5-3.357 7.5-7.5s-3.357-7.5-7.5-7.5h-92.807c-.181-8.288-2.015-16.471-5.448-24.143h98.255c4.143 0 7.5-3.357 7.5-7.5s-3.357-7.5-7.5-7.5h-101.411c-1.834 0-3.513.658-4.816 1.751-7.326-9.381-17.101-16.434-28.392-20.441v-189.73c0-14.909-6.182-28.401-16.118-38.048h185.29c30.366 0 55.071 24.705 55.071 55.071v68.609c0 4.143 3.357 7.5 7.5 7.5s7.5-3.357 7.5-7.5v-68.609c0-38.637-31.433-70.071-70.071-70.071h-222.221c-29.251 0-53.048 23.798-53.048 53.049v63.184c0 4.704 3.827 8.531 8.531 8.531h29.084c4.142 0 7.5-3.357 7.5-7.5s-3.358-7.5-7.5-7.5h-22.615v-56.715c0-20.981 17.068-38.049 38.048-38.049s38.049 17.068 38.049 38.048v56.716h-18.482c-4.142 0-7.5 3.357-7.5 7.5s3.358 7.5 7.5 7.5h18.482v114.655c-30.101-2.974-58.888 16.211-66.967 46.365-6.188 23.093-33.198 123.897-39.376 146.952-9.005 33.609 10.904 68.1 44.517 77.105 26.219 7.026 53.505-3.639 68.335-25.375 9.064 16.53 26.627 27.534 46.539 27.534h222.22c38.638 0 70.071-31.434 70.071-70.071v-54.282c.001-4.825-3.924-8.75-8.749-8.75zm-394.534 116.456c-25.542-6.844-40.754-33.192-33.91-58.734l17.747-66.232 22.531 6.037c3.996 1.077 8.113-1.301 9.186-5.303 1.072-4.001-1.302-8.113-5.304-9.186l-22.531-6.038 17.747-66.231c6.789-25.338 32.774-40.509 58.122-34.07.858.225.572.15.664.174 25.423 6.842 40.749 33.004 33.857 58.719l-17.747 66.232-35.075-9.398c-4-1.076-8.113 1.302-9.186 5.303-1.072 4.001 1.302 8.113 5.303 9.186l35.075 9.399c-13.141 49.044-17.774 66.345-17.932 66.901-7.119 25.137-33.227 40.025-58.547 33.241zm388.284-53.424c0 30.366-24.705 55.071-55.071 55.071h-185.291c9.936-9.646 16.119-23.14 16.119-38.049v-65.054h224.243z" fill="#000000" data-original="#000000" style="" class=""/><path d="m321.315 178.036c2.929-2.93 2.929-7.678 0-10.607l-18.113-18.113 19.061-19.061c2.929-2.93 2.929-7.678 0-10.607-2.929-2.928-7.677-2.928-10.607 0l-19.061 19.061-28.914-28.914c10.26-5.299 17.291-16.01 17.291-28.332 0-17.57-14.295-31.864-31.865-31.864h-24.365c-4.142 0-7.5 3.357-7.5 7.5v97.46c0 4.143 3.358 7.5 7.5 7.5s7.5-3.357 7.5-7.5v-41.23h13.758l35.988 35.988-19.062 19.062c-2.929 2.93-2.929 7.678 0 10.607 2.931 2.929 7.678 2.928 10.607 0l19.062-19.062 18.113 18.113c2.931 2.928 7.678 2.927 10.607-.001zm-89.074-79.709v-33.729h16.865c9.3 0 16.865 7.565 16.865 16.864 0 9.3-7.565 16.865-16.865 16.865z" fill="#000000" data-original="#000000" style="" class=""/><path d="m131.768 403.146-51.17-13.71c-3.997-1.073-8.113 1.302-9.186 5.303-1.072 4.001 1.303 8.114 5.304 9.186l51.17 13.71c3.993 1.073 8.112-1.297 9.186-5.303 1.072-4.001-1.303-8.114-5.304-9.186z" fill="#000000" data-original="#000000" style="" class=""/><path d="m351.371 261.469h-28.073c-4.143 0-7.5 3.357-7.5 7.5s3.357 7.5 7.5 7.5h28.073c4.143 0 7.5-3.357 7.5-7.5s-3.357-7.5-7.5-7.5z" fill="#000000" data-original="#000000" style="" class=""/></g></g></svg>
