<svg id="Layer_1" enable-background="new 0 0 512.115 512.115" height="512" viewBox="0 0 512.115 512.115" width="512" xmlns="http://www.w3.org/2000/svg"><g><circle cx="256.057" cy="256.057" fill="#edebfd" r="248"/><path d="m233.133 9.122c129.236 8.531 231.424 116.041 231.424 247.436 0 129.236-98.858 235.365-225.076 246.936 143.763 9.491 264.576-104.389 264.576-247.436 0-145.083-124.441-260.369-270.924-246.936z" fill="#d2d2fc"/><path d="m330.081 118.035c-19.654-19.654-45.766-30.479-73.525-30.478-57.153.001-103.686 46.344-103.996 103.426-.047 8.736 6.696 16.26 15.427 16.564 9.097.317 16.572-6.964 16.572-15.99 0-39.7 32.298-71.999 71.999-72 19.211 0 37.287 7.495 50.896 21.104 34.776 34.775 25.384 93.78-19.335 115.632-29.336 14.335-47.561 43.162-47.561 75.23v4.033c0 8.837 7.163 16 16 16 8.809 0 16-7.136 16-16v-4.033c0-19.745 11.346-37.555 29.609-46.479 63.799-31.174 78.618-116.306 27.914-167.009z" fill="#f1cc76"/><path d="m168.557 191.557c0 5.899-3.204 11.037-7.956 13.812 10.302 6.136 23.956-1.295 23.956-13.812 0-36.998 28.054-67.554 64.005-71.545-43.059-4.752-80.005 29.049-80.005 71.545z" fill="#ebb15d"/><path d="m330.081 118.035c-21.898-21.898-51.45-32.471-81.519-30.173 53.452 4.048 95.997 48.733 95.996 103.697-.001 40.489-23.282 76.33-58.391 93.486-18.264 8.924-29.609 26.733-29.609 46.479v4.033c0 5.919-3.222 11.074-8 13.842 10.555 6.116 24-1.453 24-13.842v-4.033c0-19.745 11.346-37.555 29.609-46.479 63.799-31.175 78.618-116.307 27.914-167.01z" fill="#ebb15d"/><circle cx="256.557" cy="407.557" fill="#f1cc76" r="24"/><path d="m248.557 384.929c21.256 7.516 21.309 37.724 0 45.258 15.552 5.498 32-6.025 32-22.629 0-16.626-16.465-28.121-32-22.629z" fill="#ebb15d"/><path d="m437.077 75.038c-100.045-100.044-261.981-100.057-362.039 0-100.043 100.044-100.058 261.98 0 362.039 100.045 100.044 261.981 100.057 362.039 0 100.043-100.044 100.058-261.98 0-362.039zm-181.02 421.019c-132.336 0-240-107.664-240-240s107.664-240 240-240 240 107.664 240 240-107.663 240-240 240z"/><path d="m256.556 79.557c-61.421.001-111.662 49.967-111.997 111.383-.071 13.118 10.313 24.154 23.149 24.603 13.587.478 24.85-10.377 24.85-23.985 0-35.289 28.71-63.999 63.999-64 17.075 0 33.141 6.663 45.24 18.762 30.918 30.915 22.56 83.363-17.19 102.787-32.104 15.688-52.048 47.269-52.048 82.418v4.033c0 13.233 10.767 24 24 24 13.234 0 24-10.767 24-24v-4.033c0-16.664 9.626-31.72 25.122-39.291 37.871-18.505 62.877-57.146 62.878-100.674 0-61.86-50.137-112.005-112.003-112.003zm81.013 163.53c-9.539 14.969-22.996 26.992-38.914 34.771-21.032 10.276-34.097 30.84-34.097 53.666v4.033c0 4.411-3.589 8-8 8s-8-3.589-8-8v-4.033c0-28.988 16.504-55.061 43.073-68.043 27.711-13.541 44.927-41.1 44.927-71.922.001-44.174-35.823-80.002-80.001-80.002-44.112.001-79.999 35.889-79.999 80 0 2.189-.868 4.233-2.443 5.755-5.194 5.013-13.596 1.106-13.555-6.285.286-52.642 43.35-95.469 95.997-95.47 75.191-.002 121.878 83.405 81.012 147.53z"/><path d="m256.557 375.557c-17.645 0-32 14.355-32 32s14.355 32 32 32 32-14.355 32-32-14.354-32-32-32zm0 48c-8.822 0-16-7.178-16-16s7.178-16 16-16 16 7.178 16 16-7.177 16-16 16z"/></g></svg>